<svg width="24" height="24" viewBox="0 0 24 24" fill="none" xmlns="http://www.w3.org/2000/svg">
<path d="M21.9996 11C22.5519 11 22.9996 10.5523 22.9996 10C22.9996 9.44772 22.5519 9 21.9996 9C21.4473 9 20.9996 9.44772 20.9996 10C20.9996 10.5523 21.4473 11 21.9996 11Z" fill="#828B99"/>
<path d="M11.9996 3C12.5519 3 12.9996 2.55228 12.9996 2C12.9996 1.44772 12.5519 1 11.9996 1C11.4473 1 10.9996 1.44772 10.9996 2C10.9996 2.55228 11.4473 3 11.9996 3Z" fill="#828B99"/>
<path d="M2 11C2.55228 11 3 10.5523 3 10C3 9.44772 2.55228 9 2 9C1.44772 9 1 9.44772 1 10C1 10.5523 1.44772 11 2 11Z" fill="#828B99"/>
<path d="M21 9H18V4C18 3.448 18.448 3 19 3H20C20.552 3 21 3.448 21 4V9Z" fill="#828B99"/>
<path d="M11.9996 2.00009V11.0001H21.9996L22.6806 9.26809L12.6776 1.26709L11.9996 2.00009Z" fill="#828B99"/>
<path d="M11.322 1.26709L1.31897 9.26809L1.99997 11.0001H12V2.00009L11.322 1.26709Z" fill="#828B99"/>
<path d="M3 10V21C3 22.105 3.895 23 5 23H19C20.105 23 21 22.105 21 21V10H3ZM19 20H15V13H19V20Z" fill="#828B99"/>
</svg>
