<svg width="24" height="20" viewBox="0 0 24 20" fill="none" xmlns="http://www.w3.org/2000/svg">
<path d="M23.9999 2.71096C23.1166 3.10327 22.1676 3.36727 21.1716 3.48634C22.1889 2.87711 22.9689 1.9125 23.3363 0.762344C22.3855 1.32634 21.3313 1.73619 20.2089 1.95773C19.3107 1.0005 18.0313 0.402344 16.6153 0.402344C13.8959 0.402344 11.6916 2.60757 11.6916 5.32604C11.6916 5.71188 11.7359 6.0885 11.819 6.44757C7.72702 6.24265 4.09933 4.28204 1.66979 1.30234C1.24702 2.02973 1.00425 2.87527 1.00425 3.77896C1.00425 5.48665 1.87287 6.99404 3.19379 7.8765C2.38702 7.85065 1.62733 7.62911 0.963639 7.26081C0.963639 7.28204 0.963639 7.30142 0.963639 7.32265C0.963639 9.70881 2.66025 11.699 4.91349 12.1503C4.50087 12.263 4.06518 12.323 3.61564 12.323C3.29902 12.323 2.98979 12.2916 2.68979 12.2353C3.31656 14.1913 5.13502 15.6156 7.28949 15.6553C5.60487 16.9762 3.48179 17.7636 1.1741 17.7636C0.777177 17.7636 0.38487 17.7405 -0.000976562 17.6943C2.17841 19.091 4.76579 19.906 7.54702 19.906C16.6043 19.906 21.5556 12.4033 21.5556 5.8965C21.5556 5.68327 21.551 5.47096 21.5418 5.25957C22.5046 4.5645 23.3399 3.69773 23.9999 2.71096Z" fill="#828B99"/>
</svg>
