<svg width="40" height="40" viewBox="0 0 40 40" fill="none" xmlns="http://www.w3.org/2000/svg">
<circle cx="20" cy="20" r="20" fill="#0A5A82"/>
<path d="M29 29H25V22.25C25 21.1914 23.8121 20.3058 22.7535 20.3058C21.6949 20.3058 21 21.1914 21 22.25V29H17V17H21V19C21.6623 17.9286 23.3564 17.2373 24.525 17.2373C26.9965 17.2373 29 19.2786 29 21.75V29ZM15 29H11V17H15V29ZM13 11C14.1046 11 15 11.8954 15 13C15 14.1046 14.1046 15 13 15C11.8954 15 11 14.1046 11 13C11 11.8954 11.8954 11 13 11Z" fill="white"/>
</svg>
