<svg width="40" height="40" viewBox="0 0 40 40" fill="none" xmlns="http://www.w3.org/2000/svg">
<circle cx="20" cy="20" r="20" fill="#1DADEB"/>
<path d="M30.9184 14.0124C30.1488 14.3537 29.3216 14.5844 28.4536 14.6881C29.3395 14.157 30.0201 13.316 30.3405 12.3138C29.5112 12.8056 28.5928 13.1628 27.6152 13.3552C26.8324 12.5211 25.7171 12 24.4827 12C22.1126 12 20.1909 13.9215 20.1909 16.2915C20.1909 16.6279 20.2289 16.9555 20.3021 17.2696C16.7353 17.0906 13.573 15.382 11.4563 12.7855C11.0869 13.4194 10.8752 14.1566 10.8752 14.9431C10.8752 16.432 11.6329 17.7456 12.7845 18.5153C12.081 18.4929 11.4192 18.2999 10.8406 17.9785C10.8402 17.9964 10.8402 18.0143 10.8402 18.0324C10.8402 20.1118 12.3196 21.8463 14.2828 22.2406C13.9227 22.3387 13.5436 22.3912 13.1522 22.3912C12.8756 22.3912 12.6068 22.3642 12.3447 22.3142C12.8908 24.0191 14.4758 25.26 16.3538 25.2945C14.885 26.4457 13.0345 27.1318 11.0238 27.1318C10.6773 27.1318 10.3357 27.1114 10 27.0717C11.8993 28.2894 14.1551 29 16.5787 29C24.4726 29 28.7894 22.4605 28.7894 16.7892C28.7894 16.6031 28.7852 16.418 28.7769 16.2339C29.6155 15.6289 30.3431 14.873 30.9184 14.0124Z" fill="white"/>
</svg>
